
<svg width="60" height="60" viewBox="0 0 60 53" fill="none" xmlns="http://www.w3.org/2000/svg">
  <path d="M38.0809 31.6644L15.6367 41.4123L57.049 0L38.0809 31.6644Z" fill="url(#paint0_linear_3569_602)"/>
  <path d="M48.2469 41.7002L15.6367 41.4119L38.0809 31.6641L48.2469 41.7002Z" fill="url(#paint1_linear_3569_602)"/>
  <path d="M58.1307 31.8168L48.2481 41.7002L38.082 31.6641L58.1307 31.8168Z" fill="url(#paint2_linear_3569_602)"/>
  <path d="M58.1313 31.8174L45.0977 24.6496L47.0203 22.7262L52.8657 22.6543L58.1313 31.8174Z" fill="url(#paint3_linear_3569_602)"/>
  <path d="M57.2649 12.4807L38.082 31.6644L57.0501 0L57.2649 12.4807Z" fill="url(#paint4_linear_3569_602)"/>
  <path d="M58.1307 31.8172L38.082 31.6644L45.0971 24.6494L58.1307 31.8172Z" fill="url(#paint5_linear_3569_602)"/>
  <path d="M20.0501 20.4451L42.4943 10.6973L1.08203 52.1095L20.0501 20.4451Z" fill="url(#paint6_linear_3569_602)"/>
  <path d="M9.88281 10.4092L42.493 10.6975L20.0488 20.4453L9.88281 10.4092Z" fill="url(#paint7_linear_3569_602)"/>
  <path d="M0 20.2926L9.88344 10.4092L20.0495 20.4453L0 20.2926Z" fill="url(#paint8_linear_3569_602)"/>
  <path d="M0 20.293L13.0344 27.4607L11.111 29.3842L5.26556 29.456L0 20.293Z" fill="url(#paint9_linear_3569_602)"/>
  <path d="M0.867188 39.629L20.0509 20.4453L1.08281 52.1097L0.867188 39.629Z" fill="url(#paint10_linear_3569_602)"/>
  <path d="M0 20.293L20.0495 20.4457L13.0344 27.4607L0 20.293Z" fill="url(#paint11_linear_3569_602)"/>
<defs>
<linearGradient id="paint0_linear_3569_602" x1="19.881" y1="43.7443" x2="57.627" y2="4.76123" gradientUnits="userSpaceOnUse">
<stop stop-color="#4C30FF"/>
<stop offset="1" stop-color="#CCB5FF"/>
</linearGradient>
<linearGradient id="paint1_linear_3569_602" x1="49.1338" y1="37.4339" x2="15.8227" y2="36.0934" gradientUnits="userSpaceOnUse">
<stop stop-color="#4C30FF"/>
<stop offset="1" stop-color="#CCB5FF"/>
</linearGradient>
<linearGradient id="paint2_linear_3569_602" x1="54.7971" y1="37.7896" x2="40.9774" y2="28.9205" gradientUnits="userSpaceOnUse">
<stop stop-color="#4C30FF"/>
<stop offset="1" stop-color="#CCB5FF"/>
</linearGradient>
<linearGradient id="paint3_linear_3569_602" x1="65.5876" y1="31.9162" x2="29.8012" y2="15.3129" gradientUnits="userSpaceOnUse">
<stop stop-color="#CBABF8"/>
<stop offset="0.07" stop-color="#AF8FE8"/>
<stop offset="0.22" stop-color="#8061CF"/>
<stop offset="0.34" stop-color="#5E3FBC"/>
<stop offset="0.45" stop-color="#492BB1"/>
<stop offset="0.52" stop-color="#4224AD"/>
<stop offset="0.59" stop-color="#4624AF"/>
<stop offset="0.67" stop-color="#5426B6"/>
<stop offset="0.76" stop-color="#6B2AC2"/>
<stop offset="0.85" stop-color="#8B2ED3"/>
<stop offset="0.94" stop-color="#B434E9"/>
<stop offset="1" stop-color="#D139F8"/>
</linearGradient>
<linearGradient id="paint4_linear_3569_602" x1="58.9714" y1="0.906821" x2="42.6771" y2="31.4337" gradientUnits="userSpaceOnUse">
<stop stop-color="#4C30FF"/>
<stop offset="1" stop-color="#CCB5FF"/>
</linearGradient>
<linearGradient id="paint5_linear_3569_602" x1="32.5542" y1="27.6255" x2="67.6187" y2="29.6879" gradientUnits="userSpaceOnUse">
<stop stop-color="#CBABF8"/>
<stop offset="0.02" stop-color="#C2A2F3"/>
<stop offset="0.09" stop-color="#9B7BDD"/>
<stop offset="0.17" stop-color="#7A5BCC"/>
<stop offset="0.25" stop-color="#6143BE"/>
<stop offset="0.33" stop-color="#5031B4"/>
<stop offset="0.42" stop-color="#4527AE"/>
<stop offset="0.52" stop-color="#4224AD"/>
<stop offset="0.59" stop-color="#4624AF"/>
<stop offset="0.67" stop-color="#5426B6"/>
<stop offset="0.76" stop-color="#6B2AC2"/>
<stop offset="0.85" stop-color="#8B2ED3"/>
<stop offset="0.94" stop-color="#B434E9"/>
<stop offset="1" stop-color="#D139F8"/>
</linearGradient>
<linearGradient id="paint6_linear_3569_602" x1="38.2502" y1="8.36486" x2="0.504241" y2="47.3479" gradientUnits="userSpaceOnUse">
<stop stop-color="#0061FF"/>
<stop offset="1" stop-color="#5FFFFF"/>
</linearGradient>
<linearGradient id="paint7_linear_3569_602" x1="8.99606" y1="14.6751" x2="42.3072" y2="16.0156" gradientUnits="userSpaceOnUse">
<stop stop-color="#0061FF"/>
<stop offset="1" stop-color="#5FFEFF"/>
</linearGradient>
<linearGradient id="paint8_linear_3569_602" x1="3.33461" y1="14.3194" x2="17.1542" y2="23.1885" gradientUnits="userSpaceOnUse">
<stop stop-color="#0061FF"/>
<stop offset="1" stop-color="#5FFEFF"/>
</linearGradient>
<linearGradient id="paint9_linear_3569_602" x1="-7.45531" y1="20.1938" x2="28.3305" y2="36.7976" gradientUnits="userSpaceOnUse">
<stop stop-color="#80D8F8"/>
<stop offset="0.11" stop-color="#5FABE2"/>
<stop offset="0.24" stop-color="#3D7CCC"/>
<stop offset="0.36" stop-color="#245ABC"/>
<stop offset="0.45" stop-color="#1545B2"/>
<stop offset="0.52" stop-color="#103EAF"/>
<stop offset="0.6" stop-color="#143FB1"/>
<stop offset="0.69" stop-color="#2244BA"/>
<stop offset="0.78" stop-color="#394CC8"/>
<stop offset="0.88" stop-color="#5958DB"/>
<stop offset="0.99" stop-color="#8266F4"/>
<stop offset="1" stop-color="#8969F8"/>
</linearGradient>
<linearGradient id="paint10_linear_3569_602" x1="-0.838885" y1="51.2031" x2="15.4554" y2="20.6762" gradientUnits="userSpaceOnUse">
<stop stop-color="#0061FF"/>
<stop offset="1" stop-color="#5FFEFF"/>
</linearGradient>
<linearGradient id="paint11_linear_3569_602" x1="25.5769" y1="24.4848" x2="-9.48762" y2="22.4224" gradientUnits="userSpaceOnUse">
<stop stop-color="#80D8F8"/>
<stop offset="0.04" stop-color="#6DBEEB"/>
<stop offset="0.11" stop-color="#5097D9"/>
<stop offset="0.18" stop-color="#3976C9"/>
<stop offset="0.26" stop-color="#275DBE"/>
<stop offset="0.34" stop-color="#1A4BB5"/>
<stop offset="0.42" stop-color="#1241B0"/>
<stop offset="0.52" stop-color="#103EAF"/>
<stop offset="0.6" stop-color="#143FB1"/>
<stop offset="0.69" stop-color="#2244BA"/>
<stop offset="0.78" stop-color="#394CC8"/>
<stop offset="0.88" stop-color="#5958DB"/>
<stop offset="0.99" stop-color="#8266F4"/>
<stop offset="1" stop-color="#8969F8"/>
</linearGradient>
</defs>
</svg>
